{
  "accessors": [
    {
      "bufferView": 2,
      "componentType": 5126,
      "count": 14141,
      "max": [
        38.3126335144043,
        158.36244201660156,
        21.899078369140625
      ],
      "min": [
        -40.89728927612305,
        1.87539541721344,
        -22.59518051147461
      ],
      "type": "VEC3"
    },
    {
      "bufferView": 2,
      "byteOffset": 169692,
      "componentType": 5126,
      "count": 14141,
      "max": [
        0.9999232888221741,
        0.995481014251709,
        0.9999708533287048
      ],
      "min": [
        -0.9999633431434631,
        -0.9935593008995056,
        -0.9999293088912964
      ],
      "type": "VEC3"
    },
    {
      "bufferView": 3,
      "componentType": 5126,
      "count": 14141,
      "max": [
        0.9999989867210388,
        0.9868782162666321,
        0.9999954104423523,
        1.0
      ],
      "min": [
        -0.999981701374054,
        -0.9922308921813965,
        -0.9999893307685852,
        -1.0
      ],
      "type": "VEC4"
    },
    {
      "bufferView": 1,
      "componentType": 5126,
      "count": 14141,
      "max": [
        0.9686165452003479,
        0.8852894306182861
      ],
      "min": [
        0.049559373408555984,
        0.07037903368473053
      ],
      "type": "VEC2"
    },
    {
      "bufferView": 1,
      "byteOffset": 113128,
      "componentType": 5126,
      "count": 14141,
      "max": [
        0.9686165452003479,
        0.8852894306182861
      ],
      "min": [
        0.049559373408555984,
        0.07037903368473053
      ],
      "type": "VEC2"
    },
    {
      "bufferView": 1,
      "byteOffset": 226256,
      "componentType": 5126,
      "count": 14141,
      "max": [
        0.9686165452003479,
        0.8852894306182861
      ],
      "min": [
        0.049559373408555984,
        0.07037903368473053
      ],
      "type": "VEC2"
    },
    {
      "bufferView": 0,
      "componentType": 5125,
      "count": 81288,
      "type": "SCALAR"
    }
  ],
  "asset": {
    "extras": {
      "author": "youngalien (https://sketchfab.com/youngalien)",
      "license": "CC-BY-4.0 (http://creativecommons.org/licenses/by/4.0/)",
      "source": "https://sketchfab.com/3d-models/gucci-x-north-face-tshirt-7adf5e6091ae4002814b978ed2d7facb",
      "title": "Gucci X North Face Tshirt"
    },
    "generator": "Sketchfab-12.66.0",
    "version": "2.0"
  },
  "bufferViews": [
    {
      "buffer": 0,
      "byteLength": 325152,
      "name": "floatBufferViews",
      "target": 34963
    },
    {
      "buffer": 0,
      "byteLength": 339384,
      "byteOffset": 325152,
      "byteStride": 8,
      "name": "floatBufferViews",
      "target": 34962
    },
    {
      "buffer": 0,
      "byteLength": 339384,
      "byteOffset": 664536,
      "byteStride": 12,
      "name": "floatBufferViews",
      "target": 34962
    },
    {
      "buffer": 0,
      "byteLength": 226256,
      "byteOffset": 1003920,
      "byteStride": 16,
      "name": "floatBufferViews",
      "target": 34962
    }
  ],
  "buffers": [
    {
      "byteLength": 1230176,
      "uri": "scene.bin"
    }
  ],
  "images": [
    {
      "uri": "textures/FABRIC_1_FRONT_2187_baseColor.png"
    },
    {
      "uri": "textures/FABRIC_1_FRONT_2187_metallicRoughness.png"
    },
    {
      "uri": "textures/FABRIC_1_FRONT_2187_normal.png"
    }
  ],
  "materials": [
    {
      "alphaMode": "BLEND",
      "doubleSided": true,
      "name": "FABRIC_1_FRONT_2187",
      "normalTexture": {
        "index": 2
      },
      "pbrMetallicRoughness": {
        "baseColorTexture": {
          "index": 0
        },
        "metallicRoughnessTexture": {
          "index": 1
        }
      }
    }
  ],
  "meshes": [
    {
      "name": "gucci_FABRIC 1_FRONT_2187_0",
      "primitives": [
        {
          "attributes": {
            "NORMAL": 1,
            "POSITION": 0,
            "TANGENT": 2,
            "TEXCOORD_0": 3,
            "TEXCOORD_1": 4,
            "TEXCOORD_2": 5
          },
          "indices": 6,
          "material": 0,
          "mode": 4
        }
      ]
    }
  ],
  "nodes": [
    {
      "children": [
        1
      ],
      "matrix": [
        1.0,
        0.0,
        0.0,
        0.0,
        0.0,
        2.220446049250313e-16,
        -1.0,
        0.0,
        0.0,
        1.0,
        2.220446049250313e-16,
        0.0,
        0.0,
        0.0,
        0.0,
        1.0
      ],
      "name": "Sketchfab_model"
    },
    {
      "children": [
        2
      ],
      "matrix": [
        0.0010000000474974513,
        0.0,
        0.0,
        0.0,
        0.0,
        0.0,
        0.0010000000474974513,
        0.0,
        0.0,
        -0.0010000000474974513,
        0.0,
        0.0,
        0.0,
        0.0,
        0.0,
        1.0
      ],
      "name": "gucci.fbx"
    },
    {
      "children": [
        3
      ],
      "name": "RootNode"
    },
    {
      "children": [
        4
      ],
      "matrix": [
        10.0,
        0.0,
        0.0,
        0.0,
        0.0,
        10.0,
        0.0,
        0.0,
        0.0,
        0.0,
        10.0,
        0.0,
        0.0,
        0.0,
        0.0,
        1.0
      ],
      "name": "gucci"
    },
    {
      "mesh": 0,
      "name": "gucci_FABRIC 1_FRONT_2187_0"
    }
  ],
  "samplers": [
    {
      "magFilter": 9729,
      "minFilter": 9987,
      "wrapS": 10497,
      "wrapT": 10497
    }
  ],
  "scene": 0,
  "scenes": [
    {
      "name": "Sketchfab_Scene",
      "nodes": [
        0
      ]
    }
  ],
  "textures": [
    {
      "sampler": 0,
      "source": 0
    },
    {
      "sampler": 0,
      "source": 1
    },
    {
      "sampler": 0,
      "source": 2
    }
  ]
}
